<svg xmlns="http://www.w3.org/2000/svg" viewBox="0 0 64 80" x="0px" y="0px"><g><path d="M56,26A24,24,0,1,0,28,49.66V52H26a1,1,0,0,0-1,1v4a1,1,0,0,0,1,1h1v3a1,1,0,0,0,1,1h8a1,1,0,0,0,1-1V58h1a1,1,0,0,0,1-1V53a1,1,0,0,0-1-1H36V49.66A24.035,24.035,0,0,0,56,26ZM35,60H29V58h6Zm2-6v2H27V54Zm-7-2V49.91c.66.055,1.326.09,2,.09s1.34-.035,2-.09V52Zm2-4A22,22,0,1,1,54,26,22.025,22.025,0,0,1,32,48Z"/><path d="M32,6A20,20,0,1,0,52,26,20.023,20.023,0,0,0,32,6Zm0,38A18,18,0,1,1,50,26,18.021,18.021,0,0,1,32,44Z"/><path d="M32,40a13.881,13.881,0,0,1-8.4-2.8l-1.2,1.6a16,16,0,0,0,19.2,0l-1.2-1.6A13.883,13.883,0,0,1,32,40Z"/><path d="M43.313,14.687A16,16,0,0,0,16,26a1,1,0,0,0,1,1h6a1,1,0,0,0,1-1,8,8,0,1,1,16,0,1,1,0,0,0,1,1h6a1,1,0,0,0,1-1A15.892,15.892,0,0,0,43.313,14.687ZM22.049,25H18.035a13.877,13.877,0,0,1,3.383-8.167l2.839,2.838A9.9,9.9,0,0,0,22.049,25ZM31,16.049a9.9,9.9,0,0,0-5.329,2.208l-2.838-2.839A13.877,13.877,0,0,1,31,12.035Zm2,0V12.035a13.877,13.877,0,0,1,8.167,3.383l-2.838,2.839A9.9,9.9,0,0,0,33,16.049ZM41.951,25a9.9,9.9,0,0,0-2.208-5.329l2.839-2.838A13.877,13.877,0,0,1,45.965,25Z"/><path d="M25.793,30.793a1,1,0,1,0,1.414,1.414l3.5-3.5.006-.009A2.957,2.957,0,0,0,32,29a3,3,0,0,0,3-3,2.957,2.957,0,0,0-.3-1.287l.009-.006,2-2a1,1,0,0,0-1.414-1.414l-2,2-.006.009A2.957,2.957,0,0,0,32,23a3,3,0,0,0-3,3,2.957,2.957,0,0,0,.3,1.287l-.009.006ZM32,25a1,1,0,1,1-1,1A1,1,0,0,1,32,25Z"/><rect x="42" y="35" width="2" height="2"/><rect x="20" y="35" width="2" height="2"/></g></svg>
